<svg width="32" height="32" viewBox="0 0 32 32" xmlns="http://www.w3.org/2000/svg">
  <defs>
    <linearGradient id="logoGradient" x1="0%" y1="0%" x2="100%" y2="100%">
      <stop offset="0%" style="stop-color:#C77DFF;stop-opacity:1" />
      <stop offset="100%" style="stop-color:#E879F9;stop-opacity:1" />
    </linearGradient>
  </defs>
  <circle cx="16" cy="16" r="16" fill="url(#logoGradient)"/>
  <g transform="translate(6, 6)">
    <!-- Simplified tiger head for favicon -->
    <path d="M10 4C14 2 18 4 20 8C21 10 20 12 18 13C20 14 22 16 20 18C18 20 14 19 12 18
             C10 19 6 20 4 18C2 16 4 14 6 13C4 12 3 10 4 8C6 4 8 2 10 4Z
             M6 7C7 6 8 7 7 8C6 7 6 7 6 7Z
             M14 7C15 6 16 7 15 8C14 7 14 7 14 7Z
             M10 10C9 10 9 11 10 11C11 11 11 10 10 10Z" 
          fill="#000000"/>
    <!-- Tiny tiger stripes -->
    <path d="M6 8L7 8M13 8L14 8M5 9L6 9M14 9L15 9M6 10L7 10M13 10L14 10" 
          stroke="#000000" stroke-width="0.5" stroke-linecap="round"/>
  </g>
</svg>