<svg width="1200" height="630" viewBox="0 0 1200 630" xmlns="http://www.w3.org/2000/svg">
  <defs>
    <linearGradient id="bgGradient" x1="0%" y1="0%" x2="100%" y2="100%">
      <stop offset="0%" style="stop-color:#0a0a0a;stop-opacity:1" />
      <stop offset="100%" style="stop-color:#1a0a1a;stop-opacity:1" />
    </linearGradient>
    <linearGradient id="textGradient" x1="0%" y1="0%" x2="100%" y2="0%">
      <stop offset="0%" style="stop-color:#C77DFF;stop-opacity:1" />
      <stop offset="100%" style="stop-color:#E879F9;stop-opacity:1" />
    </linearGradient>
    <linearGradient id="logoGradient" x1="0%" y1="0%" x2="100%" y2="100%">
      <stop offset="0%" style="stop-color:#C77DFF;stop-opacity:1" />
      <stop offset="100%" style="stop-color:#E879F9;stop-opacity:1" />
    </linearGradient>
  </defs>
  
  <!-- Background -->
  <rect width="1200" height="630" fill="url(#bgGradient)"/>
  
  <!-- Brand Circle -->
  <circle cx="200" cy="200" r="60" fill="url(#logoGradient)"/>
  <g transform="translate(160, 160)">
    <!-- Tiger head silhouette -->
    <path d="M40 20C50 15 60 20 65 30C68 35 65 40 60 42C65 45 70 50 65 55C60 60 50 58 45 55
             C40 58 30 60 25 55C20 50 25 45 30 42C25 40 22 35 25 30C30 20 35 15 40 20Z
             M30 25C32 23 34 25 32 27C30 25 30 25 30 25Z
             M50 25C52 23 54 25 52 27C50 25 50 25 50 25Z
             M40 35C38 35 38 37 40 37C42 37 42 35 40 35Z" 
          fill="#000000"/>
    <!-- Tiger stripes -->
    <path d="M28 28L32 28M48 28L52 28M26 32L30 32M50 32L54 32M28 36L32 36M48 36L52 36" 
          stroke="#000000" stroke-width="1" stroke-linecap="round"/>
  </g>
  
  <!-- Main Heading -->
  <text x="200" y="320" fill="url(#textGradient)" font-family="serif" font-size="64" font-weight="bold">SENSUAL.</text>
  <text x="200" y="390" fill="url(#textGradient)" font-family="serif" font-size="64" font-weight="bold">SOVEREIGN.</text>
  <text x="200" y="460" fill="url(#textGradient)" font-family="serif" font-size="64" font-weight="bold">SACRED.</text>
  
  <!-- Subtitle -->
  <text x="200" y="520" fill="#E5E7EB" font-family="sans-serif" font-size="32" font-weight="300">Erotic reclamation for the modern woman</text>
  
  <!-- Right Side Content -->
  <text x="750" y="180" fill="#FFFFFF" font-family="serif" font-size="40" font-weight="bold">Fifth Element Somatics</text>
  <text x="750" y="230" fill="#E5E7EB" font-family="sans-serif" font-size="24">I help women reclaim their erotic truth</text>
  <text x="750" y="270" fill="#E5E7EB" font-family="sans-serif" font-size="24">&amp; build unshakable intimacy...</text>
  
  <text x="750" y="330" fill="#FFFFFF" font-family="sans-serif" font-size="20" font-weight="bold">WITH THEMSELVES, THEIR BODIES,</text>
  <text x="750" y="360" fill="#FFFFFF" font-family="sans-serif" font-size="20" font-weight="bold">AND THE PEOPLE THEY LOVE.</text>
  
  <!-- Call to Action -->
  <rect x="750" y="420" width="300" height="60" rx="30" fill="url(#textGradient)"/>
  <text x="900" y="460" text-anchor="middle" fill="#000000" font-family="sans-serif" font-size="20" font-weight="bold">WORK WITH ME</text>
  
  <!-- Website URL -->
  <text x="750" y="540" fill="#C77DFF" font-family="sans-serif" font-size="18">fifthelementsomatics.com</text>
</svg>